<svg xmlns="http://www.w3.org/2000/svg" viewBox="0 0 1200 780" role="img" aria-labelledby="title desc">
  <title id="title">NoSky Studios project placeholder</title>
  <desc id="desc">An abstract lightweight creative technology visual.</desc>
  <defs>
    <linearGradient id="bg" x1="0" y1="0" x2="1200" y2="780" gradientUnits="userSpaceOnUse">
      <stop stop-color="#0b1020"/>
      <stop offset=".45" stop-color="#132026"/>
      <stop offset="1" stop-color="#09111c"/>
    </linearGradient>
    <linearGradient id="line" x1="193" y1="140" x2="1008" y2="650" gradientUnits="userSpaceOnUse">
      <stop stop-color="#7dd3fc"/>
      <stop offset=".55" stop-color="#a7f3d0"/>
      <stop offset="1" stop-color="#e2e8f0"/>
    </linearGradient>
  </defs>
  <rect width="1200" height="780" rx="42" fill="url(#bg)"/>
  <circle cx="930" cy="160" r="170" fill="#7dd3fc" opacity=".09"/>
  <circle cx="260" cy="600" r="210" fill="#a7f3d0" opacity=".08"/>
  <path d="M190 510c113-166 245-246 394-241 141 5 219 98 426-93" fill="none" stroke="url(#line)" stroke-width="10" stroke-linecap="round" opacity=".9"/>
  <rect x="166" y="154" width="285" height="88" rx="22" fill="#fff" opacity=".08"/>
  <rect x="166" y="274" width="430" height="34" rx="17" fill="#fff" opacity=".14"/>
  <rect x="166" y="330" width="330" height="28" rx="14" fill="#fff" opacity=".08"/>
  <rect x="704" y="404" width="312" height="170" rx="30" fill="#fff" opacity=".07"/>
  <rect x="746" y="448" width="166" height="24" rx="12" fill="#fff" opacity=".16"/>
  <rect x="746" y="494" width="224" height="20" rx="10" fill="#fff" opacity=".1"/>
</svg>
